<svg width="30" height="44" viewBox="0 0 30 44" fill="none" xmlns="http://www.w3.org/2000/svg">
<path d="M22 31C22.2 31.1 22.5 31.2 22.8 31.3C23.1 31.3 23.4 31.3 23.6 31.2C23.9 31.1 24.1 31 24.4 30.8C24.6 30.6 24.8 30.4 24.9 30.1C27.7 24.7 29.9 19.2 29.9 15.9C29.9 11.9 28.3 8.1 25.5 5.3C22.8 2.6 19 1 15 1C11 1 7.2 2.6 4.4 5.4C1.6 8.2 0 12 0 16C0 22.4 9.3 37.4 13.5 43C13.7 43.3 14 43.5 14.4 43.7C14.7 43.9 15.1 44 15.5 43.9C15.9 43.8 16.2 43.8 16.6 43.6C16.9 43.4 17.2 43.2 17.4 42.9C18.3 41.6 19.5 39.8 20.8 37.7C20.9 37.5 21 37.2 21.1 36.9C21.1 36.6 21.1 36.3 21 36C20.9 35.7 20.8 35.5 20.6 35.2C20.4 35 20.2 34.8 20 34.6C19.5 34.3 18.9 34.3 18.4 34.4C17.9 34.5 17.4 34.9 17.1 35.4C16.5 36.3 16 37.3 15.4 38.1C10.4 31.1 4.3 20 4.3 16C4.3 13.2 5.4 10.4 7.4 8.4C9.4 6.4 12.1 5.3 15 5.3C17.9 5.3 20.6 6.4 22.6 8.4C24.6 10.4 25.7 13.1 25.7 16C25.7 18.4 23.7 23.2 21.1 28.2C20.8 28.7 20.8 29.3 21 29.8C21.2 30.3 21.5 30.8 22 31Z" fill="black"/>
<path d="M14.9999 13C15.5999 13 16.1999 13.2 16.6999 13.5C17.1999 13.8 17.5999 14.3 17.7999 14.8C17.9999 15.3 18.0999 16 17.9999 16.5C17.8999 17.1 17.5999 17.6 17.1999 18C16.7999 18.4 16.1999 18.7 15.6999 18.8C15.0999 18.9 14.4999 18.9 13.9999 18.6C13.4999 18.4 12.9999 18 12.6999 17.5C12.1999 17.2 11.9999 16.6 11.9999 16C11.9999 15.2 12.2999 14.4 12.8999 13.9C13.3999 13.3 14.1999 13 14.9999 13ZM14.9999 8.7C13.5999 8.7 12.1999 9.1 10.9999 9.9C9.7999 10.7 8.8999 11.8 8.2999 13.2C7.6999 14.5 7.5999 16 7.8999 17.4C8.1999 18.8 8.8999 20.1 9.8999 21.1C10.8999 22.1 12.1999 22.8 13.5999 23.1C14.9999 23.4 16.4999 23.2 17.7999 22.7C19.0999 22.1 20.2999 21.2 21.0999 20C21.8999 18.8 22.2999 17.4 22.2999 15.9C22.2999 14 21.4999 12.1 20.1999 10.7C18.7999 9.5 16.8999 8.7 14.9999 8.7Z" fill="black"/>
</svg>
