<svg width="43" height="44" viewBox="0 0 43 44" fill="none" xmlns="http://www.w3.org/2000/svg">
<g clip-path="url(#clip0_44_5)">
<path d="M22.2 29.7L12.7 22C12.2 21.7 11.6 21.6 11.1 21.7C10.5 21.8 10.1 22.2 9.8 22.7C9.6 22.9 9.5 23.2 9.5 23.5C9.5 23.8 9.5 24.1 9.5 24.3C9.6 24.6 9.7 24.8 9.8 25.1C10 25.3 10.2 25.5 10.4 25.7L19.9 33.4C20.4 33.7 21 33.7 21.5 33.6C22 33.5 22.5 33.1 22.8 32.7C23.1 32.2 23.2 31.7 23.1 31.1C23 30.5 22.7 30 22.2 29.7Z" fill="black"/>
<path d="M22.2 33.3L31.7 25.6C31.9 25.5 32.1 25.3 32.3 25C32.5 24.8 32.6 24.5 32.6 24.2C32.7 23.9 32.7 23.6 32.6 23.4C32.6 23.1 32.5 22.9 32.3 22.6C32 22.1 31.5 21.8 31 21.6C30.4 21.5 29.9 21.6 29.4 21.9L19.9 29.6C19.7 29.7 19.5 29.9 19.3 30.2C19.1 30.5 19 30.7 19 31C18.9 31.3 18.9 31.6 19 31.8C19 32.1 19.1 32.3 19.3 32.6C19.4 32.8 19.6 33.1 19.9 33.2C20.2 33.3 20.4 33.5 20.7 33.5C21 33.6 21.3 33.6 21.5 33.5C21.7 33.6 22 33.5 22.2 33.3Z" fill="black"/>
<path d="M35.9 13H7.1C5.2 13 3.4 13.7 2.1 15.1C0.8 16.4 0 18.2 0 20.1V36.9C0 38.8 0.7 40.6 2.1 41.9C3.5 43.2 5.2 44 7.1 44H36C37.9 44 39.7 43.3 41 41.9C42.3 40.6 43.1 38.8 43.1 36.9V20.1C43.1 18.2 42.4 16.4 41 15.1C39.6 13.7 37.8 13 35.9 13ZM38.7 36.9C38.7 37.6 38.4 38.3 37.9 38.9C37.4 39.4 36.7 39.7 35.9 39.7H7.1C6.4 39.7 5.7 39.4 5.1 38.9C4.5 38.4 4.3 37.7 4.3 36.9V20.1C4.3 19.4 4.6 18.7 5.1 18.1C5.6 17.6 6.3 17.3 7.1 17.3H36C36.7 17.3 37.4 17.6 38 18.1C38.5 18.6 38.8 19.3 38.8 20.1V36.9H38.7Z" fill="black"/>
</g>
<defs>
<clipPath id="clip0_44_5">
<rect width="43" height="44" fill="white"/>
</clipPath>
</defs>
</svg>
